<svg width="1024" height="1024" viewBox="0 0 1024 1024" fill="none" xmlns="http://www.w3.org/2000/svg">
  <defs>
    <linearGradient id="bg" x1="176" y1="112" x2="852" y2="912" gradientUnits="userSpaceOnUse">
      <stop offset="0%" stop-color="#FFFDF8"/>
      <stop offset="45%" stop-color="#F3E7D7"/>
      <stop offset="100%" stop-color="#DCC7AD"/>
    </linearGradient>
    <linearGradient id="core" x1="512" y1="276" x2="512" y2="748" gradientUnits="userSpaceOnUse">
      <stop offset="0%" stop-color="#C8A47B"/>
      <stop offset="100%" stop-color="#9D7651"/>
    </linearGradient>
    <linearGradient id="innerSheen" x1="430" y1="320" x2="592" y2="700" gradientUnits="userSpaceOnUse">
      <stop offset="0%" stop-color="#FFF8F0" stop-opacity="0.28"/>
      <stop offset="100%" stop-color="#FFF8F0" stop-opacity="0.06"/>
    </linearGradient>
    <filter id="shadow" x="150" y="140" width="724" height="744" filterUnits="userSpaceOnUse" color-interpolation-filters="sRGB">
      <feDropShadow dx="0" dy="24" stdDeviation="30" flood-color="#866242" flood-opacity="0.18"/>
    </filter>
    <filter id="soft" x="0" y="0" width="1024" height="1024" filterUnits="userSpaceOnUse" color-interpolation-filters="sRGB">
      <feDropShadow dx="0" dy="10" stdDeviation="14" flood-color="#8A6748" flood-opacity="0.12"/>
    </filter>
  </defs>

  <rect x="96" y="96" width="832" height="832" rx="228" fill="url(#bg)"/>

  <g opacity="0.15">
    <path d="M300 521C300 403.916 394.916 309 512 309C601.106 309 678.283 363.221 709.752 440.238" stroke="#B99873" stroke-width="20" stroke-linecap="round"/>
    <path d="M724 525C724 642.084 629.084 737 512 737C422.894 737 345.717 682.779 314.248 605.762" stroke="#B99873" stroke-width="20" stroke-linecap="round"/>
  </g>

  <!-- orbital guide lines -->
  <g stroke="#B58E67" stroke-width="8" stroke-linecap="round" opacity="0.45">
    <path d="M512 334C512 292 512 270 512 248"/>
    <path d="M424 390C392 366 372 352 354 336"/>
    <path d="M600 390C632 366 652 352 670 336"/>
    <path d="M424 634C392 658 372 672 354 688"/>
    <path d="M600 634C632 658 652 672 670 688"/>
  </g>

  <g filter="url(#shadow)">
    <rect x="396" y="252" width="232" height="520" rx="116" fill="url(#core)"/>
    <rect x="426" y="284" width="172" height="456" rx="86" fill="url(#innerSheen)"/>
  </g>

  <circle cx="470" cy="456" r="16" fill="#FFF7EF"/>
  <circle cx="554" cy="456" r="16" fill="#FFF7EF"/>
  <path d="M456 558C473.235 573.627 491.902 581 512 581C532.098 581 550.765 573.627 568 558" stroke="#FFF7EF" stroke-width="20" stroke-linecap="round" stroke-linejoin="round"/>

  <!-- attendance top -->
  <g filter="url(#soft)">
    <circle cx="512" cy="214" r="56" fill="#FFF8F1"/>
    <circle cx="512" cy="214" r="55" stroke="#E4D0B8" stroke-width="2"/>
    <rect x="482" y="191" width="60" height="46" rx="11" fill="none" stroke="#A97E57" stroke-width="7"/>
    <path d="M495 181V198" stroke="#A97E57" stroke-width="7" stroke-linecap="round"/>
    <path d="M529 181V198" stroke="#A97E57" stroke-width="7" stroke-linecap="round"/>
    <path d="M496 221L507 232L529 210" stroke="#A97E57" stroke-width="7" stroke-linecap="round" stroke-linejoin="round"/>
  </g>

  <!-- electric left-middle -->
  <g filter="url(#soft)">
    <circle cx="336" cy="512" r="56" fill="#FFF8F1"/>
    <circle cx="336" cy="512" r="55" stroke="#E4D0B8" stroke-width="2"/>
    <path d="M345 478L316 522H338L327 548L363 504H340L345 478Z" fill="#A97E57"/>
  </g>

  <!-- management right-middle -->
  <g filter="url(#soft)">
    <circle cx="688" cy="512" r="56" fill="#FFF8F1"/>
    <circle cx="688" cy="512" r="55" stroke="#E4D0B8" stroke-width="2"/>
    <circle cx="688" cy="512" r="18" stroke="#A97E57" stroke-width="7"/>
    <path d="M688 474V486" stroke="#A97E57" stroke-width="7" stroke-linecap="round"/>
    <path d="M688 538V550" stroke="#A97E57" stroke-width="7" stroke-linecap="round"/>
    <path d="M726 512H714" stroke="#A97E57" stroke-width="7" stroke-linecap="round"/>
    <path d="M662 512H650" stroke="#A97E57" stroke-width="7" stroke-linecap="round"/>
    <path d="M715 485L706 494" stroke="#A97E57" stroke-width="7" stroke-linecap="round"/>
    <path d="M670 530L661 539" stroke="#A97E57" stroke-width="7" stroke-linecap="round"/>
    <path d="M715 539L706 530" stroke="#A97E57" stroke-width="7" stroke-linecap="round"/>
    <path d="M670 494L661 485" stroke="#A97E57" stroke-width="7" stroke-linecap="round"/>
  </g>

  <circle cx="334" cy="668" r="8" fill="#B58E67" fill-opacity="0.28"/>
  <circle cx="690" cy="356" r="10" fill="#FFF8F2" fill-opacity="0.88"/>
</svg>
